# xmcd
#
# Track frame offsets:
# 150
# 25392
# 45972
# 71977
# 94435
# 116035
# 137847
# 161735
# 174715
# 196447
# 216932
# 238212
# 268610
#
# Disc length: 3813 seconds
#
#
# Revision: 0
# Processed by: cddbd v1.4PL0 Copyright (c) Steve Scherf et al.
# Submitted via: FreeRIP 2.35 
#
DISCID=cc0ee30d
DTITLE=Willie Kent - Long Way To Ol' Miss
DYEAR=1996
DGENRE=Blues
TTITLE0=Long Way To Ol' Miss
TTITLE1=Blues In My Bedroom
TTITLE2=Dirty Works
TTITLE3=It Ain't Right
TTITLE4=Ain't Got Long To Stay
TTITLE5=My Friend
TTITLE6=Don't Know Much About Love
TTITLE7=Extension 309
TTITLE8=All My Life
TTITLE9=Ain't No Love In Your Heart
TTITLE10=Dont' Drive Me Away
TTITLE11=Black Night
TTITLE12=What You Doin' To Me
EXTD=
EXTT0=
EXTT1=
EXTT2=
EXTT3=
EXTT4=
EXTT5=
EXTT6=
EXTT7=
EXTT8=
EXTT9=
EXTT10=
EXTT11=
EXTT12=
PLAYORDER=
